<?xml version="1.0" encoding="utf-8"?>
<!DOCTYPE svg PUBLIC "-//W3C//DTD SVG 1.1//EN" "http://www.w3.org/Graphics/SVG/1.1/DTD/svg11.dtd">
<!-- Generated by graphviz version 2.43.0 (0)
 -->
<!-- Title: stones Pages: 1 -->
<svg height="742pt" viewBox="0.00 0.00 272.0 742.0" width="272pt" xmlns="http://www.w3.org/2000/svg" xmlns:xlink="http://www.w3.org/1999/xlink">
 <g class="graph" id="graph0" transform="scale(1 1) rotate(0) translate(4 688)">
  <title>
   stones
  </title>
  <polygon fill="white" points="-4,4 -4,-688 218,-688 218,4 -4,4" stroke="transparent"/>
  <!-- Leetcode&#45;几何 -->
  <g class="node" id="node1">
   <title>
    Leetcode-几何
   </title>
   <g id="a_node1">
    <a target="_parent" xlink:href="https://leetcode-cn.com/tag/geometry" xlink:title="Leetcode-几何(9)">
     <polygon fill="orangered" points="180,-684 34,-684 34,-648 180,-648 180,-684" stroke="lightgrey"/>
     <text fill="white" font-family="Microsoft YaHei" font-size="16.00" text-anchor="middle" x="107" y="-662.2">
      Leetcode-几何(9)
     </text>
    </a>
   </g>
  </g>
  <!-- 892 -->
  <g class="node" id="node2">
   <title>
    892
   </title>
   <g id="a_node2">
    <a target="_parent" xlink:href="https://leetcode-cn.com/problems/surface-area-of-3d-shapes" xlink:title="892. 三维形体的表面积">
     <polygon fill="none" points="188.5,-612 25.5,-612 25.5,-576 188.5,-576 188.5,-612" stroke="greenyellow"/>
     <text font-family="Microsoft YaHei" font-size="14.00" text-anchor="middle" x="107" y="-590.3">
      892. 三维形体的表面积
     </text>
    </a>
   </g>
  </g>
  <!-- Leetcode&#45;几何&#45;&gt;892 -->
  <g class="edge" id="edge1">
   <title>
    Leetcode-几何-&gt;892
   </title>
   <path d="M107,-647.7C107,-639.98 107,-630.71 107,-622.11" fill="none" stroke="lightgrey"/>
   <polygon fill="lightgrey" points="110.5,-622.1 107,-612.1 103.5,-622.1 110.5,-622.1" stroke="lightgrey"/>
  </g>
  <!-- 1232 -->
  <g class="node" id="node3">
   <title>
    1232
   </title>
   <g id="a_node3">
    <a target="_parent" xlink:href="https://leetcode-cn.com/problems/check-if-it-is-a-straight-line" xlink:title="1232. 缀点成线">
     <polygon fill="none" points="164,-540 50,-540 50,-504 164,-504 164,-540" stroke="greenyellow"/>
     <text font-family="Microsoft YaHei" font-size="14.00" text-anchor="middle" x="107" y="-518.3">
      1232. 缀点成线
     </text>
    </a>
   </g>
  </g>
  <!-- 892&#45;&gt;1232 -->
  <g class="edge" id="edge2">
   <title>
    892-&gt;1232
   </title>
   <path d="M107,-575.7C107,-567.98 107,-558.71 107,-550.11" fill="none" stroke="lightgrey"/>
   <polygon fill="lightgrey" points="110.5,-550.1 107,-540.1 103.5,-550.1 110.5,-550.1" stroke="lightgrey"/>
  </g>
  <!-- 1266 -->
  <g class="node" id="node4">
   <title>
    1266
   </title>
   <g id="a_node4">
    <a target="_parent" xlink:href="https://leetcode-cn.com/problems/minimum-time-visiting-all-points" xlink:title="1266. 访问所有点的最小时间">
     <polygon fill="none" points="207,-468 7,-468 7,-432 207,-432 207,-468" stroke="greenyellow"/>
     <text font-family="Microsoft YaHei" font-size="14.00" text-anchor="middle" x="107" y="-446.3">
      1266. 访问所有点的最小时间
     </text>
    </a>
   </g>
  </g>
  <!-- 1232&#45;&gt;1266 -->
  <g class="edge" id="edge3">
   <title>
    1232-&gt;1266
   </title>
   <path d="M107,-503.7C107,-495.98 107,-486.71 107,-478.11" fill="none" stroke="lightgrey"/>
   <polygon fill="lightgrey" points="110.5,-478.1 107,-468.1 103.5,-478.1 110.5,-478.1" stroke="lightgrey"/>
  </g>
  <!-- 963 -->
  <g class="node" id="node5">
   <title>
    963
   </title>
   <g id="a_node5">
    <a target="_parent" xlink:href="https://leetcode-cn.com/problems/minimum-area-rectangle-ii" xlink:title="963. 最小面积矩形 II">
     <polygon fill="none" points="180,-396 34,-396 34,-360 180,-360 180,-396" stroke="orange"/>
     <text font-family="Microsoft YaHei" font-size="14.00" text-anchor="middle" x="107" y="-374.3">
      963. 最小面积矩形 II
     </text>
    </a>
   </g>
  </g>
  <!-- 1266&#45;&gt;963 -->
  <g class="edge" id="edge4">
   <title>
    1266-&gt;963
   </title>
   <path d="M107,-431.7C107,-423.98 107,-414.71 107,-406.11" fill="none" stroke="lightgrey"/>
   <polygon fill="lightgrey" points="110.5,-406.1 107,-396.1 103.5,-406.1 110.5,-406.1" stroke="lightgrey"/>
  </g>
  <!-- 1401 -->
  <g class="node" id="node6">
   <title>
    1401
   </title>
   <g id="a_node6">
    <a target="_parent" xlink:href="https://leetcode-cn.com/problems/circle-and-rectangle-overlapping" xlink:title="1401. 圆和矩形是否有重叠">
     <polygon fill="none" points="199.5,-324 14.5,-324 14.5,-288 199.5,-288 199.5,-324" stroke="orange"/>
     <text font-family="Microsoft YaHei" font-size="14.00" text-anchor="middle" x="107" y="-302.3">
      1401. 圆和矩形是否有重叠
     </text>
    </a>
   </g>
  </g>
  <!-- 963&#45;&gt;1401 -->
  <g class="edge" id="edge5">
   <title>
    963-&gt;1401
   </title>
   <path d="M107,-359.7C107,-351.98 107,-342.71 107,-334.11" fill="none" stroke="lightgrey"/>
   <polygon fill="lightgrey" points="110.5,-334.1 107,-324.1 103.5,-334.1 110.5,-334.1" stroke="lightgrey"/>
  </g>
  <!-- 587 -->
  <g class="node" id="node7">
   <title>
    587
   </title>
   <g id="a_node7">
    <a target="_parent" xlink:href="https://leetcode-cn.com/problems/erect-the-fence" xlink:title="587. 安装栅栏">
     <polygon fill="none" points="160,-252 54,-252 54,-216 160,-216 160,-252" stroke="red"/>
     <text font-family="Microsoft YaHei" font-size="14.00" text-anchor="middle" x="107" y="-230.3">
      587. 安装栅栏
     </text>
    </a>
   </g>
  </g>
  <!-- 1401&#45;&gt;587 -->
  <g class="edge" id="edge6">
   <title>
    1401-&gt;587
   </title>
   <path d="M107,-287.7C107,-279.98 107,-270.71 107,-262.11" fill="none" stroke="lightgrey"/>
   <polygon fill="lightgrey" points="110.5,-262.1 107,-252.1 103.5,-262.1 110.5,-262.1" stroke="lightgrey"/>
  </g>
  <!-- 1453 -->
  <g class="node" id="node8">
   <title>
    1453
   </title>
   <g id="a_node8">
    <a target="_parent" xlink:href="https://leetcode-cn.com/problems/maximum-number-of-darts-inside-of-a-circular-dartboard" xlink:title="1453. 圆形靶内的最大飞镖数量">
     <polygon fill="none" points="214,-180 0,-180 0,-144 214,-144 214,-180" stroke="red"/>
     <text font-family="Microsoft YaHei" font-size="14.00" text-anchor="middle" x="107" y="-158.3">
      1453. 圆形靶内的最大飞镖数量
     </text>
    </a>
   </g>
  </g>
  <!-- 587&#45;&gt;1453 -->
  <g class="edge" id="edge7">
   <title>
    587-&gt;1453
   </title>
   <path d="M107,-215.7C107,-207.98 107,-198.71 107,-190.11" fill="none" stroke="lightgrey"/>
   <polygon fill="lightgrey" points="110.5,-190.1 107,-180.1 103.5,-190.1 110.5,-190.1" stroke="lightgrey"/>
  </g>
  <!-- 1515 -->
  <g class="node" id="node9">
   <title>
    1515
   </title>
   <g id="a_node9">
    <a target="_parent" xlink:href="https://leetcode-cn.com/problems/best-position-for-a-service-centre" xlink:title="1515. 服务中心的最佳位置">
     <polygon fill="none" points="199.5,-108 14.5,-108 14.5,-72 199.5,-72 199.5,-108" stroke="red"/>
     <text font-family="Microsoft YaHei" font-size="14.00" text-anchor="middle" x="107" y="-86.3">
      1515. 服务中心的最佳位置
     </text>
    </a>
   </g>
  </g>
  <!-- 1453&#45;&gt;1515 -->
  <g class="edge" id="edge8">
   <title>
    1453-&gt;1515
   </title>
   <path d="M107,-143.7C107,-135.98 107,-126.71 107,-118.11" fill="none" stroke="lightgrey"/>
   <polygon fill="lightgrey" points="110.5,-118.1 107,-108.1 103.5,-118.1 110.5,-118.1" stroke="lightgrey"/>
  </g>
  <!-- 1610 -->
  <g class="node" id="node10">
   <title>
    1610
   </title>
   <g id="a_node10">
    <a target="_parent" xlink:href="https://leetcode-cn.com/problems/maximum-number-of-visible-points" xlink:title="1610. 可见点的最大数目">
     <polygon fill="none" points="192.5,-36 21.5,-36 21.5,0 192.5,0 192.5,-36" stroke="red"/>
     <text font-family="Microsoft YaHei" font-size="14.00" text-anchor="middle" x="107" y="-14.3">
      1610. 可见点的最大数目
     </text>
    </a>
   </g>
  </g>
  <!-- 1515&#45;&gt;1610 -->
  <g class="edge" id="edge9">
   <title>
    1515-&gt;1610
   </title>
   <path d="M107,-71.7C107,-63.98 107,-54.71 107,-46.11" fill="none" stroke="lightgrey"/>
   <polygon fill="lightgrey" points="110.5,-46.1 107,-36.1 103.5,-46.1 110.5,-46.1" stroke="lightgrey"/>
  </g>
  <g class="key">
   <defs>
    <filter height="1.2" id="solid" width="1.2" x="-0.1" y="-0.1">
     <feFlood flood-color="#ccff90" result="bg"/>
     <feMerge>
      <feMergeNode in="bg"/>
      <feMergeNode in="SourceGraphic"/>
     </feMerge>
    </filter>
   </defs>
   <text filter="url(#solid)" font-family="Microsoft YaHei" font-size="10.00" text-anchor="middle" x="107.0" y="-571.0">
    表面积
   </text>
  </g>
  <g class="key">
   <defs>
    <filter height="1.2" id="solid" width="1.2" x="-0.1" y="-0.1">
     <feFlood flood-color="#ccff90" result="bg"/>
     <feMerge>
      <feMergeNode in="bg"/>
      <feMergeNode in="SourceGraphic"/>
     </feMerge>
    </filter>
   </defs>
   <text filter="url(#solid)" font-family="Microsoft YaHei" font-size="10.00" text-anchor="middle" x="107.0" y="-499.0">
    点与线
   </text>
  </g>
  <g class="key">
   <defs>
    <filter height="1.2" id="solid" width="1.2" x="-0.1" y="-0.1">
     <feFlood flood-color="#ccff90" result="bg"/>
     <feMerge>
      <feMergeNode in="bg"/>
      <feMergeNode in="SourceGraphic"/>
     </feMerge>
    </filter>
   </defs>
   <text filter="url(#solid)" font-family="Microsoft YaHei" font-size="10.00" text-anchor="middle" x="107.0" y="-427.0">
    斜线与直线
   </text>
  </g>
  <g class="key">
   <defs>
    <filter height="1.2" id="solid" width="1.2" x="-0.1" y="-0.1">
     <feFlood flood-color="#ccff90" result="bg"/>
     <feMerge>
      <feMergeNode in="bg"/>
      <feMergeNode in="SourceGraphic"/>
     </feMerge>
    </filter>
   </defs>
   <text filter="url(#solid)" font-family="Microsoft YaHei" font-size="10.00" text-anchor="middle" x="107.0" y="-355.0">
    点与矩形
   </text>
  </g>
  <g class="key">
   <defs>
    <filter height="1.2" id="solid" width="1.2" x="-0.1" y="-0.1">
     <feFlood flood-color="#ccff90" result="bg"/>
     <feMerge>
      <feMergeNode in="bg"/>
      <feMergeNode in="SourceGraphic"/>
     </feMerge>
    </filter>
   </defs>
   <text filter="url(#solid)" font-family="Microsoft YaHei" font-size="10.00" text-anchor="middle" x="107.0" y="-283.0">
    圆与矩形
   </text>
  </g>
  <g class="key">
   <defs>
    <filter height="1.2" id="solid" width="1.2" x="-0.1" y="-0.1">
     <feFlood flood-color="#ccff90" result="bg"/>
     <feMerge>
      <feMergeNode in="bg"/>
      <feMergeNode in="SourceGraphic"/>
     </feMerge>
    </filter>
   </defs>
   <text filter="url(#solid)" font-family="Microsoft YaHei" font-size="10.00" text-anchor="middle" x="107.0" y="-211.0">
    多边形与凸包
   </text>
  </g>
  <g class="key">
   <defs>
    <filter height="1.2" id="solid" width="1.2" x="-0.1" y="-0.1">
     <feFlood flood-color="#ccff90" result="bg"/>
     <feMerge>
      <feMergeNode in="bg"/>
      <feMergeNode in="SourceGraphic"/>
     </feMerge>
    </filter>
   </defs>
   <text filter="url(#solid)" font-family="Microsoft YaHei" font-size="10.00" text-anchor="middle" x="107.0" y="-139.0">
    圆与点
   </text>
  </g>
  <g class="key">
   <defs>
    <filter height="1.2" id="solid" width="1.2" x="-0.1" y="-0.1">
     <feFlood flood-color="#ccff90" result="bg"/>
     <feMerge>
      <feMergeNode in="bg"/>
      <feMergeNode in="SourceGraphic"/>
     </feMerge>
    </filter>
   </defs>
   <text filter="url(#solid)" font-family="Microsoft YaHei" font-size="10.00" text-anchor="middle" x="107.0" y="-67.0">
    凸函数最值
   </text>
  </g>
  <g class="key">
   <defs>
    <filter height="1.2" id="solid" width="1.2" x="-0.1" y="-0.1">
     <feFlood flood-color="#ccff90" result="bg"/>
     <feMerge>
      <feMergeNode in="bg"/>
      <feMergeNode in="SourceGraphic"/>
     </feMerge>
    </filter>
   </defs>
   <text filter="url(#solid)" font-family="Microsoft YaHei" font-size="10.00" text-anchor="middle" x="107.0" y="5.0">
    扇形
   </text>
  </g>
 </g>
</svg>