<?xml version="1.0" encoding="utf-8"?>
<!DOCTYPE svg PUBLIC "-//W3C//DTD SVG 1.1//EN" "http://www.w3.org/Graphics/SVG/1.1/DTD/svg11.dtd">
<!-- Generated by graphviz version 2.43.0 (0)
 -->
<!-- Title: stones Pages: 1 -->
<svg height="814pt" viewBox="0.00 0.00 1069.5 814.0" width="1070pt" xmlns="http://www.w3.org/2000/svg" xmlns:xlink="http://www.w3.org/1999/xlink">
 <g class="graph" id="graph0" transform="scale(1 1) rotate(0) translate(4 760)">
  <title>
   stones
  </title>
  <polygon fill="white" points="-4,4 -4,-760 1015.5,-760 1015.5,4 -4,4" stroke="transparent"/>
  <!-- Leetcode&#45;链表 -->
  <g class="node" id="node1">
   <title>
    Leetcode-链表
   </title>
   <g id="a_node1">
    <a target="_parent" xlink:href="https://leetcode-cn.com/tag/linked-list" xlink:title="Leetcode-链表(36)">
     <polygon fill="orangered" points="578,-756 423,-756 423,-720 578,-720 578,-756" stroke="lightgrey"/>
     <text fill="white" font-family="Microsoft YaHei" font-size="16.00" text-anchor="middle" x="500.5" y="-734.2">
      Leetcode-链表(36)
     </text>
    </a>
   </g>
  </g>
  <!-- 链表第一题 -->
  <g class="node" id="node2">
   <title>
    链表第一题
   </title>
   <polygon fill="lightslategray" points="165,-684 60,-684 60,-648 165,-648 165,-684" stroke="lightgrey"/>
   <text fill="white" font-family="Microsoft YaHei" font-size="14.00" text-anchor="middle" x="112.5" y="-662.3">
    链表第一题(1)
   </text>
  </g>
  <!-- Leetcode&#45;链表&#45;&gt;链表第一题 -->
  <g class="edge" id="edge1">
   <title>
    Leetcode-链表-&gt;链表第一题
   </title>
   <path d="M422.78,-726.32C357.12,-716.81 260.74,-701.67 177.5,-684 176.75,-683.84 176,-683.68 175.24,-683.51" fill="none" stroke="lightgrey"/>
   <polygon fill="lightgrey" points="175.79,-680.05 165.26,-681.24 174.23,-686.87 175.79,-680.05" stroke="lightgrey"/>
  </g>
  <!-- 反转链表 -->
  <g class="node" id="node4">
   <title>
    反转链表
   </title>
   <polygon fill="lightslategray" points="278,-684 187,-684 187,-648 278,-648 278,-684" stroke="lightgrey"/>
   <text fill="white" font-family="Microsoft YaHei" font-size="14.00" text-anchor="middle" x="232.5" y="-662.3">
    反转链表(6)
   </text>
  </g>
  <!-- Leetcode&#45;链表&#45;&gt;反转链表 -->
  <g class="edge" id="edge3">
   <title>
    Leetcode-链表-&gt;反转链表
   </title>
   <path d="M435.28,-719.97C390.15,-708.18 330.73,-692.66 287.89,-681.47" fill="none" stroke="lightgrey"/>
   <polygon fill="lightgrey" points="288.76,-678.08 278.2,-678.94 286.99,-684.85 288.76,-678.08" stroke="lightgrey"/>
  </g>
  <!-- 删除链表 -->
  <g class="node" id="node11">
   <title>
    删除链表
   </title>
   <polygon fill="lightslategray" points="416,-684 325,-684 325,-648 416,-648 416,-684" stroke="lightgrey"/>
   <text fill="white" font-family="Microsoft YaHei" font-size="14.00" text-anchor="middle" x="370.5" y="-662.3">
    删除链表(5)
   </text>
  </g>
  <!-- Leetcode&#45;链表&#45;&gt;删除链表 -->
  <g class="edge" id="edge10">
   <title>
    Leetcode-链表-&gt;删除链表
   </title>
   <path d="M468.7,-719.88C451.39,-710.55 429.78,-698.92 411.24,-688.94" fill="none" stroke="lightgrey"/>
   <polygon fill="lightgrey" points="412.89,-685.85 402.42,-684.19 409.57,-692.01 412.89,-685.85" stroke="lightgrey"/>
  </g>
  <!-- 构建新链表 -->
  <g class="node" id="node17">
   <title>
    构建新链表
   </title>
   <polygon fill="lightslategray" points="553,-684 448,-684 448,-648 553,-648 553,-684" stroke="lightgrey"/>
   <text fill="white" font-family="Microsoft YaHei" font-size="14.00" text-anchor="middle" x="500.5" y="-662.3">
    构建新链表(9)
   </text>
  </g>
  <!-- Leetcode&#45;链表&#45;&gt;构建新链表 -->
  <g class="edge" id="edge16">
   <title>
    Leetcode-链表-&gt;构建新链表
   </title>
   <path d="M500.5,-719.7C500.5,-711.98 500.5,-702.71 500.5,-694.11" fill="none" stroke="lightgrey"/>
   <polygon fill="lightgrey" points="504,-694.1 500.5,-684.1 497,-694.1 504,-694.1" stroke="lightgrey"/>
  </g>
  <!-- 快慢指针 -->
  <g class="node" id="node27">
   <title>
    快慢指针
   </title>
   <polygon fill="lightslategray" points="662,-684 571,-684 571,-648 662,-648 662,-684" stroke="lightgrey"/>
   <text fill="white" font-family="Microsoft YaHei" font-size="14.00" text-anchor="middle" x="616.5" y="-662.3">
    快慢指针(8)
   </text>
  </g>
  <!-- Leetcode&#45;链表&#45;&gt;快慢指针 -->
  <g class="edge" id="edge26">
   <title>
    Leetcode-链表-&gt;快慢指针
   </title>
   <path d="M528.88,-719.88C544.04,-710.72 562.91,-699.34 579.24,-689.48" fill="none" stroke="lightgrey"/>
   <polygon fill="lightgrey" points="581.26,-692.35 588.01,-684.19 577.64,-686.36 581.26,-692.35" stroke="lightgrey"/>
  </g>
  <!-- 链表和其他算法 -->
  <g class="node" id="node36">
   <title>
    链表和其他算法
   </title>
   <polygon fill="lightslategray" points="814.5,-684 680.5,-684 680.5,-648 814.5,-648 814.5,-684" stroke="lightgrey"/>
   <text fill="white" font-family="Microsoft YaHei" font-size="14.00" text-anchor="middle" x="747.5" y="-662.3">
    链表和其他算法(7)
   </text>
  </g>
  <!-- Leetcode&#45;链表&#45;&gt;链表和其他算法 -->
  <g class="edge" id="edge35">
   <title>
    Leetcode-链表-&gt;链表和其他算法
   </title>
   <path d="M560.61,-719.97C595.87,-709.97 640.59,-697.3 677.44,-686.85" fill="none" stroke="lightgrey"/>
   <polygon fill="lightgrey" points="678.46,-690.2 687.12,-684.11 676.55,-683.47 678.46,-690.2" stroke="lightgrey"/>
  </g>
  <!-- 设计题 -->
  <g class="node" id="node44">
   <title>
    设计题
   </title>
   <polygon fill="lightslategray" points="910,-684 833,-684 833,-648 910,-648 910,-684" stroke="lightgrey"/>
   <text fill="white" font-family="Microsoft YaHei" font-size="14.00" text-anchor="middle" x="871.5" y="-662.3">
    设计题(0)
   </text>
  </g>
  <!-- Leetcode&#45;链表&#45;&gt;设计题 -->
  <g class="edge" id="edge43">
   <title>
    Leetcode-链表-&gt;设计题
   </title>
   <path d="M578.31,-728.18C641.92,-720.06 734.18,-706.23 823.19,-683.82" fill="none" stroke="lightgrey"/>
   <polygon fill="lightgrey" points="824.09,-687.2 832.91,-681.33 822.35,-680.42 824.09,-687.2" stroke="lightgrey"/>
  </g>
  <!-- 707 -->
  <g class="node" id="node3">
   <title>
    707
   </title>
   <g id="a_node3">
    <a target="_parent" xlink:href="https://leetcode-cn.com/problems/design-linked-list" xlink:title="707. 设计链表">
     <polygon fill="none" points="139.5,-612 33.5,-612 33.5,-576 139.5,-576 139.5,-612" stroke="orange"/>
     <text font-family="Microsoft YaHei" font-size="14.00" text-anchor="middle" x="86.5" y="-590.3">
      707. 设计链表
     </text>
    </a>
   </g>
  </g>
  <!-- 链表第一题&#45;&gt;707 -->
  <g class="edge" id="edge2">
   <title>
    链表第一题-&gt;707
   </title>
   <path d="M106.07,-647.7C103.14,-639.81 99.61,-630.3 96.36,-621.55" fill="none" stroke="lightgrey"/>
   <polygon fill="lightgrey" points="99.62,-620.26 92.85,-612.1 93.05,-622.7 99.62,-620.26" stroke="lightgrey"/>
  </g>
  <!-- 234 -->
  <g class="node" id="node5">
   <title>
    234
   </title>
   <g id="a_node5">
    <a target="_parent" xlink:href="https://leetcode-cn.com/problems/palindrome-linked-list" xlink:title="234. 回文链表">
     <polygon fill="none" points="263.5,-612 157.5,-612 157.5,-576 263.5,-576 263.5,-612" stroke="greenyellow"/>
     <text font-family="Microsoft YaHei" font-size="14.00" text-anchor="middle" x="210.5" y="-590.3">
      234. 回文链表
     </text>
    </a>
   </g>
  </g>
  <!-- 反转链表&#45;&gt;234 -->
  <g class="edge" id="edge4">
   <title>
    反转链表-&gt;234
   </title>
   <path d="M227.06,-647.7C224.61,-639.9 221.66,-630.51 218.93,-621.83" fill="none" stroke="lightgrey"/>
   <polygon fill="lightgrey" points="222.21,-620.59 215.88,-612.1 215.54,-622.69 222.21,-620.59" stroke="lightgrey"/>
  </g>
  <!-- 206 -->
  <g class="node" id="node6">
   <title>
    206
   </title>
   <g id="a_node6">
    <a target="_parent" xlink:href="https://leetcode-cn.com/problems/reverse-linked-list" xlink:title="206. 反转链表">
     <polygon fill="none" points="211.5,-540 105.5,-540 105.5,-504 211.5,-504 211.5,-540" stroke="greenyellow"/>
     <text font-family="Microsoft YaHei" font-size="14.00" text-anchor="middle" x="158.5" y="-518.3">
      206. 反转链表
     </text>
    </a>
   </g>
  </g>
  <!-- 234&#45;&gt;206 -->
  <g class="edge" id="edge5">
   <title>
    234-&gt;206
   </title>
   <path d="M197.65,-575.7C191.47,-567.39 183.96,-557.28 177.18,-548.14" fill="none" stroke="lightgrey"/>
   <polygon fill="lightgrey" points="179.98,-546.04 171.21,-540.1 174.36,-550.22 179.98,-546.04" stroke="lightgrey"/>
  </g>
  <!-- 24 -->
  <g class="node" id="node7">
   <title>
    24
   </title>
   <g id="a_node7">
    <a target="_parent" xlink:href="https://leetcode-cn.com/problems/swap-nodes-in-pairs" xlink:title="24. 两两交换链表中的节点">
     <polygon fill="none" points="183,-468 0,-468 0,-432 183,-432 183,-468" stroke="orange"/>
     <text font-family="Microsoft YaHei" font-size="14.00" text-anchor="middle" x="91.5" y="-446.3">
      24. 两两交换链表中的节点
     </text>
    </a>
   </g>
  </g>
  <!-- 206&#45;&gt;24 -->
  <g class="edge" id="edge6">
   <title>
    206-&gt;24
   </title>
   <path d="M141.94,-503.7C133.82,-495.22 123.91,-484.86 115.03,-475.58" fill="none" stroke="lightgrey"/>
   <polygon fill="lightgrey" points="117.31,-472.91 107.87,-468.1 112.26,-477.75 117.31,-472.91" stroke="lightgrey"/>
  </g>
  <!-- 25 -->
  <g class="node" id="node8">
   <title>
    25
   </title>
   <g id="a_node8">
    <a target="_parent" xlink:href="https://leetcode-cn.com/problems/reverse-nodes-in-k-group" xlink:title="25. K 个一组翻转链表">
     <polygon fill="none" points="168.5,-396 14.5,-396 14.5,-360 168.5,-360 168.5,-396" stroke="red"/>
     <text font-family="Microsoft YaHei" font-size="14.00" text-anchor="middle" x="91.5" y="-374.3">
      25. K 个一组翻转链表
     </text>
    </a>
   </g>
  </g>
  <!-- 24&#45;&gt;25 -->
  <g class="edge" id="edge7">
   <title>
    24-&gt;25
   </title>
   <path d="M91.5,-431.7C91.5,-423.98 91.5,-414.71 91.5,-406.11" fill="none" stroke="lightgrey"/>
   <polygon fill="lightgrey" points="95,-406.1 91.5,-396.1 88,-406.1 95,-406.1" stroke="lightgrey"/>
  </g>
  <!-- 92 -->
  <g class="node" id="node9">
   <title>
    92
   </title>
   <g id="a_node9">
    <a target="_parent" xlink:href="https://leetcode-cn.com/problems/reverse-linked-list-ii" xlink:title="92. 反转链表 II">
     <polygon fill="none" points="146.5,-324 36.5,-324 36.5,-288 146.5,-288 146.5,-324" stroke="orange"/>
     <text font-family="Microsoft YaHei" font-size="14.00" text-anchor="middle" x="91.5" y="-302.3">
      92. 反转链表 II
     </text>
    </a>
   </g>
  </g>
  <!-- 25&#45;&gt;92 -->
  <g class="edge" id="edge8">
   <title>
    25-&gt;92
   </title>
   <path d="M91.5,-359.7C91.5,-351.98 91.5,-342.71 91.5,-334.11" fill="none" stroke="lightgrey"/>
   <polygon fill="lightgrey" points="95,-334.1 91.5,-324.1 88,-334.1 95,-334.1" stroke="lightgrey"/>
  </g>
  <!-- 143 -->
  <g class="node" id="node10">
   <title>
    143
   </title>
   <g id="a_node10">
    <a target="_parent" xlink:href="https://leetcode-cn.com/problems/reorder-list" xlink:title="143. 重排链表">
     <polygon fill="none" points="144.5,-252 38.5,-252 38.5,-216 144.5,-216 144.5,-252" stroke="orange"/>
     <text font-family="Microsoft YaHei" font-size="14.00" text-anchor="middle" x="91.5" y="-230.3">
      143. 重排链表
     </text>
    </a>
   </g>
  </g>
  <!-- 92&#45;&gt;143 -->
  <g class="edge" id="edge9">
   <title>
    92-&gt;143
   </title>
   <path d="M91.5,-287.7C91.5,-279.98 91.5,-270.71 91.5,-262.11" fill="none" stroke="lightgrey"/>
   <polygon fill="lightgrey" points="95,-262.1 91.5,-252.1 88,-262.1 95,-262.1" stroke="lightgrey"/>
  </g>
  <!-- 237 -->
  <g class="node" id="node12">
   <title>
    237
   </title>
   <g id="a_node12">
    <a target="_parent" xlink:href="https://leetcode-cn.com/problems/delete-node-in-a-linked-list" xlink:title="237. 删除链表中的节点">
     <polygon fill="none" points="445,-612 282,-612 282,-576 445,-576 445,-612" stroke="greenyellow"/>
     <text font-family="Microsoft YaHei" font-size="14.00" text-anchor="middle" x="363.5" y="-590.3">
      237. 删除链表中的节点
     </text>
    </a>
   </g>
  </g>
  <!-- 删除链表&#45;&gt;237 -->
  <g class="edge" id="edge11">
   <title>
    删除链表-&gt;237
   </title>
   <path d="M368.77,-647.7C368,-639.98 367.07,-630.71 366.21,-622.11" fill="none" stroke="lightgrey"/>
   <polygon fill="lightgrey" points="369.69,-621.71 365.21,-612.1 362.72,-622.4 369.69,-621.71" stroke="lightgrey"/>
  </g>
  <!-- 203 -->
  <g class="node" id="node13">
   <title>
    203
   </title>
   <g id="a_node13">
    <a target="_parent" xlink:href="https://leetcode-cn.com/problems/remove-linked-list-elements" xlink:title="203. 移除链表元素">
     <polygon fill="none" points="402.5,-540 268.5,-540 268.5,-504 402.5,-504 402.5,-540" stroke="greenyellow"/>
     <text font-family="Microsoft YaHei" font-size="14.00" text-anchor="middle" x="335.5" y="-518.3">
      203. 移除链表元素
     </text>
    </a>
   </g>
  </g>
  <!-- 237&#45;&gt;203 -->
  <g class="edge" id="edge12">
   <title>
    237-&gt;203
   </title>
   <path d="M356.58,-575.7C353.43,-567.81 349.62,-558.3 346.12,-549.55" fill="none" stroke="lightgrey"/>
   <polygon fill="lightgrey" points="349.31,-548.09 342.34,-540.1 342.81,-550.69 349.31,-548.09" stroke="lightgrey"/>
  </g>
  <!-- 83 -->
  <g class="node" id="node14">
   <title>
    83
   </title>
   <g id="a_node14">
    <a target="_parent" xlink:href="https://leetcode-cn.com/problems/remove-duplicates-from-sorted-list" xlink:title="83. 删除排序链表中的重复元素">
     <polygon fill="none" points="413.5,-468 201.5,-468 201.5,-432 413.5,-432 413.5,-468" stroke="greenyellow"/>
     <text font-family="Microsoft YaHei" font-size="14.00" text-anchor="middle" x="307.5" y="-446.3">
      83. 删除排序链表中的重复元素
     </text>
    </a>
   </g>
  </g>
  <!-- 203&#45;&gt;83 -->
  <g class="edge" id="edge13">
   <title>
    203-&gt;83
   </title>
   <path d="M328.58,-503.7C325.43,-495.81 321.62,-486.3 318.12,-477.55" fill="none" stroke="lightgrey"/>
   <polygon fill="lightgrey" points="321.31,-476.09 314.34,-468.1 314.81,-478.69 321.31,-476.09" stroke="lightgrey"/>
  </g>
  <!-- 82 -->
  <g class="node" id="node15">
   <title>
    82
   </title>
   <g id="a_node15">
    <a target="_parent" xlink:href="https://leetcode-cn.com/problems/remove-duplicates-from-sorted-list-ii" xlink:title="82. 删除排序链表中的重复元素 II">
     <polygon fill="none" points="419.5,-396 195.5,-396 195.5,-360 419.5,-360 419.5,-396" stroke="orange"/>
     <text font-family="Microsoft YaHei" font-size="14.00" text-anchor="middle" x="307.5" y="-374.3">
      82. 删除排序链表中的重复元素 II
     </text>
    </a>
   </g>
  </g>
  <!-- 83&#45;&gt;82 -->
  <g class="edge" id="edge14">
   <title>
    83-&gt;82
   </title>
   <path d="M307.5,-431.7C307.5,-423.98 307.5,-414.71 307.5,-406.11" fill="none" stroke="lightgrey"/>
   <polygon fill="lightgrey" points="311,-406.1 307.5,-396.1 304,-406.1 311,-406.1" stroke="lightgrey"/>
  </g>
  <!-- 1171 -->
  <g class="node" id="node16">
   <title>
    1171
   </title>
   <g id="a_node16">
    <a target="_parent" xlink:href="https://leetcode-cn.com/problems/remove-zero-sum-consecutive-nodes-from-linked-list" xlink:title="1171. 从链表中删去总和值为零的连续节点">
     <polygon fill="none" points="450,-324 165,-324 165,-288 450,-288 450,-324" stroke="orange"/>
     <text font-family="Microsoft YaHei" font-size="14.00" text-anchor="middle" x="307.5" y="-302.3">
      1171. 从链表中删去总和值为零的连续节点
     </text>
    </a>
   </g>
  </g>
  <!-- 82&#45;&gt;1171 -->
  <g class="edge" id="edge15">
   <title>
    82-&gt;1171
   </title>
   <path d="M307.5,-359.7C307.5,-351.98 307.5,-342.71 307.5,-334.11" fill="none" stroke="lightgrey"/>
   <polygon fill="lightgrey" points="311,-334.1 307.5,-324.1 304,-334.1 311,-334.1" stroke="lightgrey"/>
  </g>
  <!-- 2 -->
  <g class="node" id="node18">
   <title>
    2
   </title>
   <g id="a_node18">
    <a target="_parent" xlink:href="https://leetcode-cn.com/problems/add-two-numbers" xlink:title="2. 两数相加">
     <polygon fill="none" points="552,-612 463,-612 463,-576 552,-576 552,-612" stroke="orange"/>
     <text font-family="Microsoft YaHei" font-size="14.00" text-anchor="middle" x="507.5" y="-590.3">
      2. 两数相加
     </text>
    </a>
   </g>
  </g>
  <!-- 构建新链表&#45;&gt;2 -->
  <g class="edge" id="edge17">
   <title>
    构建新链表-&gt;2
   </title>
   <path d="M502.23,-647.7C503,-639.98 503.93,-630.71 504.79,-622.11" fill="none" stroke="lightgrey"/>
   <polygon fill="lightgrey" points="508.28,-622.4 505.79,-612.1 501.31,-621.71 508.28,-622.4" stroke="lightgrey"/>
  </g>
  <!-- 445 -->
  <g class="node" id="node19">
   <title>
    445
   </title>
   <g id="a_node19">
    <a target="_parent" xlink:href="https://leetcode-cn.com/problems/add-two-numbers-ii" xlink:title="445. 两数相加 II">
     <polygon fill="none" points="566.5,-540 448.5,-540 448.5,-504 566.5,-504 566.5,-540" stroke="orange"/>
     <text font-family="Microsoft YaHei" font-size="14.00" text-anchor="middle" x="507.5" y="-518.3">
      445. 两数相加 II
     </text>
    </a>
   </g>
  </g>
  <!-- 2&#45;&gt;445 -->
  <g class="edge" id="edge18">
   <title>
    2-&gt;445
   </title>
   <path d="M507.5,-575.7C507.5,-567.98 507.5,-558.71 507.5,-550.11" fill="none" stroke="lightgrey"/>
   <polygon fill="lightgrey" points="511,-550.1 507.5,-540.1 504,-550.1 511,-550.1" stroke="lightgrey"/>
  </g>
  <!-- 430 -->
  <g class="node" id="node20">
   <title>
    430
   </title>
   <g id="a_node20">
    <a target="_parent" xlink:href="https://leetcode-cn.com/problems/flatten-a-multilevel-doubly-linked-list" xlink:title="430. 扁平化多级双向链表">
     <polygon fill="none" points="608,-468 431,-468 431,-432 608,-432 608,-468" stroke="orange"/>
     <text font-family="Microsoft YaHei" font-size="14.00" text-anchor="middle" x="519.5" y="-446.3">
      430. 扁平化多级双向链表
     </text>
    </a>
   </g>
  </g>
  <!-- 445&#45;&gt;430 -->
  <g class="edge" id="edge19">
   <title>
    445-&gt;430
   </title>
   <path d="M510.47,-503.7C511.79,-495.98 513.38,-486.71 514.85,-478.11" fill="none" stroke="lightgrey"/>
   <polygon fill="lightgrey" points="518.33,-478.55 516.57,-468.1 511.43,-477.37 518.33,-478.55" stroke="lightgrey"/>
  </g>
  <!-- 1669 -->
  <g class="node" id="node21">
   <title>
    1669
   </title>
   <g id="a_node21">
    <a target="_parent" xlink:href="https://leetcode-cn.com/problems/merge-in-between-linked-lists" xlink:title="1669. 合并两个链表">
     <polygon fill="none" points="590,-396 447,-396 447,-360 590,-360 590,-396" stroke="orange"/>
     <text font-family="Microsoft YaHei" font-size="14.00" text-anchor="middle" x="518.5" y="-374.3">
      1669. 合并两个链表
     </text>
    </a>
   </g>
  </g>
  <!-- 430&#45;&gt;1669 -->
  <g class="edge" id="edge20">
   <title>
    430-&gt;1669
   </title>
   <path d="M519.25,-431.7C519.14,-423.98 519.01,-414.71 518.89,-406.11" fill="none" stroke="lightgrey"/>
   <polygon fill="lightgrey" points="522.39,-406.05 518.74,-396.1 515.39,-406.15 522.39,-406.05" stroke="lightgrey"/>
  </g>
  <!-- 86 -->
  <g class="node" id="node22">
   <title>
    86
   </title>
   <g id="a_node22">
    <a target="_parent" xlink:href="https://leetcode-cn.com/problems/partition-list" xlink:title="86. 分隔链表">
     <polygon fill="none" points="567.5,-324 469.5,-324 469.5,-288 567.5,-288 567.5,-324" stroke="orange"/>
     <text font-family="Microsoft YaHei" font-size="14.00" text-anchor="middle" x="518.5" y="-302.3">
      86. 分隔链表
     </text>
    </a>
   </g>
  </g>
  <!-- 1669&#45;&gt;86 -->
  <g class="edge" id="edge21">
   <title>
    1669-&gt;86
   </title>
   <path d="M518.5,-359.7C518.5,-351.98 518.5,-342.71 518.5,-334.11" fill="none" stroke="lightgrey"/>
   <polygon fill="lightgrey" points="522,-334.1 518.5,-324.1 515,-334.1 522,-334.1" stroke="lightgrey"/>
  </g>
  <!-- 328 -->
  <g class="node" id="node23">
   <title>
    328
   </title>
   <g id="a_node23">
    <a target="_parent" xlink:href="https://leetcode-cn.com/problems/odd-even-linked-list" xlink:title="328. 奇偶链表">
     <polygon fill="none" points="571.5,-252 465.5,-252 465.5,-216 571.5,-216 571.5,-252" stroke="orange"/>
     <text font-family="Microsoft YaHei" font-size="14.00" text-anchor="middle" x="518.5" y="-230.3">
      328. 奇偶链表
     </text>
    </a>
   </g>
  </g>
  <!-- 86&#45;&gt;328 -->
  <g class="edge" id="edge22">
   <title>
    86-&gt;328
   </title>
   <path d="M518.5,-287.7C518.5,-279.98 518.5,-270.71 518.5,-262.11" fill="none" stroke="lightgrey"/>
   <polygon fill="lightgrey" points="522,-262.1 518.5,-252.1 515,-262.1 522,-262.1" stroke="lightgrey"/>
  </g>
  <!-- 725 -->
  <g class="node" id="node24">
   <title>
    725
   </title>
   <g id="a_node24">
    <a target="_parent" xlink:href="https://leetcode-cn.com/problems/split-linked-list-in-parts" xlink:title="725. 分隔链表">
     <polygon fill="none" points="571.5,-180 465.5,-180 465.5,-144 571.5,-144 571.5,-180" stroke="orange"/>
     <text font-family="Microsoft YaHei" font-size="14.00" text-anchor="middle" x="518.5" y="-158.3">
      725. 分隔链表
     </text>
    </a>
   </g>
  </g>
  <!-- 328&#45;&gt;725 -->
  <g class="edge" id="edge23">
   <title>
    328-&gt;725
   </title>
   <path d="M518.5,-215.7C518.5,-207.98 518.5,-198.71 518.5,-190.11" fill="none" stroke="lightgrey"/>
   <polygon fill="lightgrey" points="522,-190.1 518.5,-180.1 515,-190.1 522,-190.1" stroke="lightgrey"/>
  </g>
  <!-- 21 -->
  <g class="node" id="node25">
   <title>
    21
   </title>
   <g id="a_node25">
    <a target="_parent" xlink:href="https://leetcode-cn.com/problems/merge-two-sorted-lists" xlink:title="21. 合并两个有序链表">
     <polygon fill="none" points="596,-108 441,-108 441,-72 596,-72 596,-108" stroke="greenyellow"/>
     <text font-family="Microsoft YaHei" font-size="14.00" text-anchor="middle" x="518.5" y="-86.3">
      21. 合并两个有序链表
     </text>
    </a>
   </g>
  </g>
  <!-- 725&#45;&gt;21 -->
  <g class="edge" id="edge24">
   <title>
    725-&gt;21
   </title>
   <path d="M518.5,-143.7C518.5,-135.98 518.5,-126.71 518.5,-118.11" fill="none" stroke="lightgrey"/>
   <polygon fill="lightgrey" points="522,-118.1 518.5,-108.1 515,-118.1 522,-118.1" stroke="lightgrey"/>
  </g>
  <!-- 23 -->
  <g class="node" id="node26">
   <title>
    23
   </title>
   <g id="a_node26">
    <a target="_parent" xlink:href="https://leetcode-cn.com/problems/merge-k-sorted-lists" xlink:title="23. 合并K个升序链表">
     <polygon fill="none" points="593,-36 444,-36 444,0 593,0 593,-36" stroke="red"/>
     <text font-family="Microsoft YaHei" font-size="14.00" text-anchor="middle" x="518.5" y="-14.3">
      23. 合并K个升序链表
     </text>
    </a>
   </g>
  </g>
  <!-- 21&#45;&gt;23 -->
  <g class="edge" id="edge25">
   <title>
    21-&gt;23
   </title>
   <path d="M518.5,-71.7C518.5,-63.98 518.5,-54.71 518.5,-46.11" fill="none" stroke="lightgrey"/>
   <polygon fill="lightgrey" points="522,-46.1 518.5,-36.1 515,-46.1 522,-46.1" stroke="lightgrey"/>
  </g>
  <!-- 876 -->
  <g class="node" id="node28">
   <title>
    876
   </title>
   <g id="a_node28">
    <a target="_parent" xlink:href="https://leetcode-cn.com/problems/middle-of-the-linked-list" xlink:title="876. 链表的中间结点">
     <polygon fill="none" points="743,-612 594,-612 594,-576 743,-576 743,-612" stroke="greenyellow"/>
     <text font-family="Microsoft YaHei" font-size="14.00" text-anchor="middle" x="668.5" y="-590.3">
      876. 链表的中间结点
     </text>
    </a>
   </g>
  </g>
  <!-- 快慢指针&#45;&gt;876 -->
  <g class="edge" id="edge27">
   <title>
    快慢指针-&gt;876
   </title>
   <path d="M629.35,-647.7C635.53,-639.39 643.04,-629.28 649.82,-620.14" fill="none" stroke="lightgrey"/>
   <polygon fill="lightgrey" points="652.64,-622.22 655.79,-612.1 647.02,-618.04 652.64,-622.22" stroke="lightgrey"/>
  </g>
  <!-- 19 -->
  <g class="node" id="node29">
   <title>
    19
   </title>
   <g id="a_node29">
    <a target="_parent" xlink:href="https://leetcode-cn.com/problems/remove-nth-node-from-end-of-list" xlink:title="19. 删除链表的倒数第 N 个结点">
     <polygon fill="none" points="802.5,-540 584.5,-540 584.5,-504 802.5,-504 802.5,-540" stroke="orange"/>
     <text font-family="Microsoft YaHei" font-size="14.00" text-anchor="middle" x="693.5" y="-518.3">
      19. 删除链表的倒数第 N 个结点
     </text>
    </a>
   </g>
  </g>
  <!-- 876&#45;&gt;19 -->
  <g class="edge" id="edge28">
   <title>
    876-&gt;19
   </title>
   <path d="M674.68,-575.7C677.5,-567.81 680.89,-558.3 684.02,-549.55" fill="none" stroke="lightgrey"/>
   <polygon fill="lightgrey" points="687.32,-550.7 687.39,-540.1 680.73,-548.34 687.32,-550.7" stroke="lightgrey"/>
  </g>
  <!-- 61 -->
  <g class="node" id="node30">
   <title>
    61
   </title>
   <g id="a_node30">
    <a target="_parent" xlink:href="https://leetcode-cn.com/problems/rotate-list" xlink:title="61. 旋转链表">
     <polygon fill="none" points="742.5,-468 644.5,-468 644.5,-432 742.5,-432 742.5,-468" stroke="orange"/>
     <text font-family="Microsoft YaHei" font-size="14.00" text-anchor="middle" x="693.5" y="-446.3">
      61. 旋转链表
     </text>
    </a>
   </g>
  </g>
  <!-- 19&#45;&gt;61 -->
  <g class="edge" id="edge29">
   <title>
    19-&gt;61
   </title>
   <path d="M693.5,-503.7C693.5,-495.98 693.5,-486.71 693.5,-478.11" fill="none" stroke="lightgrey"/>
   <polygon fill="lightgrey" points="697,-478.1 693.5,-468.1 690,-478.1 697,-478.1" stroke="lightgrey"/>
  </g>
  <!-- 1721 -->
  <g class="node" id="node31">
   <title>
    1721
   </title>
   <g id="a_node31">
    <a target="_parent" xlink:href="https://leetcode-cn.com/problems/swapping-nodes-in-a-linked-list" xlink:title="1721. 交换链表中的节点">
     <polygon fill="none" points="779,-396 608,-396 608,-360 779,-360 779,-396" stroke="orange"/>
     <text font-family="Microsoft YaHei" font-size="14.00" text-anchor="middle" x="693.5" y="-374.3">
      1721. 交换链表中的节点
     </text>
    </a>
   </g>
  </g>
  <!-- 61&#45;&gt;1721 -->
  <g class="edge" id="edge30">
   <title>
    61-&gt;1721
   </title>
   <path d="M693.5,-431.7C693.5,-423.98 693.5,-414.71 693.5,-406.11" fill="none" stroke="lightgrey"/>
   <polygon fill="lightgrey" points="697,-406.1 693.5,-396.1 690,-406.1 697,-406.1" stroke="lightgrey"/>
  </g>
  <!-- 109 -->
  <g class="node" id="node32">
   <title>
    109
   </title>
   <g id="a_node32">
    <a target="_parent" xlink:href="https://leetcode-cn.com/problems/convert-sorted-list-to-binary-search-tree" xlink:title="109. 有序链表转换二叉搜索树">
     <polygon fill="none" points="796.5,-324 590.5,-324 590.5,-288 796.5,-288 796.5,-324" stroke="orange"/>
     <text font-family="Microsoft YaHei" font-size="14.00" text-anchor="middle" x="693.5" y="-302.3">
      109. 有序链表转换二叉搜索树
     </text>
    </a>
   </g>
  </g>
  <!-- 1721&#45;&gt;109 -->
  <g class="edge" id="edge31">
   <title>
    1721-&gt;109
   </title>
   <path d="M693.5,-359.7C693.5,-351.98 693.5,-342.71 693.5,-334.11" fill="none" stroke="lightgrey"/>
   <polygon fill="lightgrey" points="697,-334.1 693.5,-324.1 690,-334.1 697,-334.1" stroke="lightgrey"/>
  </g>
  <!-- 141 -->
  <g class="node" id="node33">
   <title>
    141
   </title>
   <g id="a_node33">
    <a target="_parent" xlink:href="https://leetcode-cn.com/problems/linked-list-cycle" xlink:title="141. 环形链表">
     <polygon fill="none" points="746.5,-252 640.5,-252 640.5,-216 746.5,-216 746.5,-252" stroke="greenyellow"/>
     <text font-family="Microsoft YaHei" font-size="14.00" text-anchor="middle" x="693.5" y="-230.3">
      141. 环形链表
     </text>
    </a>
   </g>
  </g>
  <!-- 109&#45;&gt;141 -->
  <g class="edge" id="edge32">
   <title>
    109-&gt;141
   </title>
   <path d="M693.5,-287.7C693.5,-279.98 693.5,-270.71 693.5,-262.11" fill="none" stroke="lightgrey"/>
   <polygon fill="lightgrey" points="697,-262.1 693.5,-252.1 690,-262.1 697,-262.1" stroke="lightgrey"/>
  </g>
  <!-- 160 -->
  <g class="node" id="node34">
   <title>
    160
   </title>
   <g id="a_node34">
    <a target="_parent" xlink:href="https://leetcode-cn.com/problems/intersection-of-two-linked-lists" xlink:title="160. 相交链表">
     <polygon fill="none" points="746.5,-180 640.5,-180 640.5,-144 746.5,-144 746.5,-180" stroke="greenyellow"/>
     <text font-family="Microsoft YaHei" font-size="14.00" text-anchor="middle" x="693.5" y="-158.3">
      160. 相交链表
     </text>
    </a>
   </g>
  </g>
  <!-- 141&#45;&gt;160 -->
  <g class="edge" id="edge33">
   <title>
    141-&gt;160
   </title>
   <path d="M693.5,-215.7C693.5,-207.98 693.5,-198.71 693.5,-190.11" fill="none" stroke="lightgrey"/>
   <polygon fill="lightgrey" points="697,-190.1 693.5,-180.1 690,-190.1 697,-190.1" stroke="lightgrey"/>
  </g>
  <!-- 142 -->
  <g class="node" id="node35">
   <title>
    142
   </title>
   <g id="a_node35">
    <a target="_parent" xlink:href="https://leetcode-cn.com/problems/linked-list-cycle-ii" xlink:title="142. 环形链表 II">
     <polygon fill="none" points="752.5,-108 634.5,-108 634.5,-72 752.5,-72 752.5,-108" stroke="orange"/>
     <text font-family="Microsoft YaHei" font-size="14.00" text-anchor="middle" x="693.5" y="-86.3">
      142. 环形链表 II
     </text>
    </a>
   </g>
  </g>
  <!-- 160&#45;&gt;142 -->
  <g class="edge" id="edge34">
   <title>
    160-&gt;142
   </title>
   <path d="M693.5,-143.7C693.5,-135.98 693.5,-126.71 693.5,-118.11" fill="none" stroke="lightgrey"/>
   <polygon fill="lightgrey" points="697,-118.1 693.5,-108.1 690,-118.1 697,-118.1" stroke="lightgrey"/>
  </g>
  <!-- 1290 -->
  <g class="node" id="node37">
   <title>
    1290
   </title>
   <g id="a_node37">
    <a target="_parent" xlink:href="https://leetcode-cn.com/problems/convert-binary-number-in-a-linked-list-to-integer" xlink:title="1290. 二进制链表转整数">
     <polygon fill="none" points="949,-612 778,-612 778,-576 949,-576 949,-612" stroke="greenyellow"/>
     <text font-family="Microsoft YaHei" font-size="14.00" text-anchor="middle" x="863.5" y="-590.3">
      1290. 二进制链表转整数
     </text>
    </a>
   </g>
  </g>
  <!-- 链表和其他算法&#45;&gt;1290 -->
  <g class="edge" id="edge36">
   <title>
    链表和其他算法-&gt;1290
   </title>
   <path d="M775.88,-647.88C791.04,-638.72 809.91,-627.34 826.24,-617.48" fill="none" stroke="lightgrey"/>
   <polygon fill="lightgrey" points="828.26,-620.35 835.01,-612.19 824.64,-614.36 828.26,-620.35" stroke="lightgrey"/>
  </g>
  <!-- 817 -->
  <g class="node" id="node38">
   <title>
    817
   </title>
   <g id="a_node38">
    <a target="_parent" xlink:href="https://leetcode-cn.com/problems/linked-list-components" xlink:title="817. 链表组件">
     <polygon fill="none" points="934.5,-540 828.5,-540 828.5,-504 934.5,-504 934.5,-540" stroke="orange"/>
     <text font-family="Microsoft YaHei" font-size="14.00" text-anchor="middle" x="881.5" y="-518.3">
      817. 链表组件
     </text>
    </a>
   </g>
  </g>
  <!-- 1290&#45;&gt;817 -->
  <g class="edge" id="edge37">
   <title>
    1290-&gt;817
   </title>
   <path d="M867.95,-575.7C869.95,-567.9 872.37,-558.51 874.6,-549.83" fill="none" stroke="lightgrey"/>
   <polygon fill="lightgrey" points="878,-550.66 877.1,-540.1 871.22,-548.92 878,-550.66" stroke="lightgrey"/>
  </g>
  <!-- 1367 -->
  <g class="node" id="node39">
   <title>
    1367
   </title>
   <g id="a_node39">
    <a target="_parent" xlink:href="https://leetcode-cn.com/problems/linked-list-in-binary-tree" xlink:title="1367. 二叉树中的列表">
     <polygon fill="none" points="975,-468 818,-468 818,-432 975,-432 975,-468" stroke="orange"/>
     <text font-family="Microsoft YaHei" font-size="14.00" text-anchor="middle" x="896.5" y="-446.3">
      1367. 二叉树中的列表
     </text>
    </a>
   </g>
  </g>
  <!-- 817&#45;&gt;1367 -->
  <g class="edge" id="edge38">
   <title>
    817-&gt;1367
   </title>
   <path d="M885.21,-503.7C886.86,-495.98 888.85,-486.71 890.69,-478.11" fill="none" stroke="lightgrey"/>
   <polygon fill="lightgrey" points="894.16,-478.62 892.83,-468.1 887.32,-477.15 894.16,-478.62" stroke="lightgrey"/>
  </g>
  <!-- 1019 -->
  <g class="node" id="node40">
   <title>
    1019
   </title>
   <g id="a_node40">
    <a target="_parent" xlink:href="https://leetcode-cn.com/problems/next-greater-node-in-linked-list" xlink:title="1019. 链表中的下一个更大节点">
     <polygon fill="none" points="1011.5,-396 797.5,-396 797.5,-360 1011.5,-360 1011.5,-396" stroke="orange"/>
     <text font-family="Microsoft YaHei" font-size="14.00" text-anchor="middle" x="904.5" y="-374.3">
      1019. 链表中的下一个更大节点
     </text>
    </a>
   </g>
  </g>
  <!-- 1367&#45;&gt;1019 -->
  <g class="edge" id="edge39">
   <title>
    1367-&gt;1019
   </title>
   <path d="M898.48,-431.7C899.36,-423.98 900.42,-414.71 901.4,-406.11" fill="none" stroke="lightgrey"/>
   <polygon fill="lightgrey" points="904.89,-406.44 902.55,-396.1 897.93,-405.64 904.89,-406.44" stroke="lightgrey"/>
  </g>
  <!-- 147 -->
  <g class="node" id="node41">
   <title>
    147
   </title>
   <g id="a_node41">
    <a target="_parent" xlink:href="https://leetcode-cn.com/problems/insertion-sort-list" xlink:title="147. 对链表进行插入排序">
     <polygon fill="none" points="993,-324 816,-324 816,-288 993,-288 993,-324" stroke="orange"/>
     <text font-family="Microsoft YaHei" font-size="14.00" text-anchor="middle" x="904.5" y="-302.3">
      147. 对链表进行插入排序
     </text>
    </a>
   </g>
  </g>
  <!-- 1019&#45;&gt;147 -->
  <g class="edge" id="edge40">
   <title>
    1019-&gt;147
   </title>
   <path d="M904.5,-359.7C904.5,-351.98 904.5,-342.71 904.5,-334.11" fill="none" stroke="lightgrey"/>
   <polygon fill="lightgrey" points="908,-334.1 904.5,-324.1 901,-334.1 908,-334.1" stroke="lightgrey"/>
  </g>
  <!-- 148 -->
  <g class="node" id="node42">
   <title>
    148
   </title>
   <g id="a_node42">
    <a target="_parent" xlink:href="https://leetcode-cn.com/problems/sort-list" xlink:title="148. 排序链表">
     <polygon fill="none" points="957.5,-252 851.5,-252 851.5,-216 957.5,-216 957.5,-252" stroke="orange"/>
     <text font-family="Microsoft YaHei" font-size="14.00" text-anchor="middle" x="904.5" y="-230.3">
      148. 排序链表
     </text>
    </a>
   </g>
  </g>
  <!-- 147&#45;&gt;148 -->
  <g class="edge" id="edge41">
   <title>
    147-&gt;148
   </title>
   <path d="M904.5,-287.7C904.5,-279.98 904.5,-270.71 904.5,-262.11" fill="none" stroke="lightgrey"/>
   <polygon fill="lightgrey" points="908,-262.1 904.5,-252.1 901,-262.1 908,-262.1" stroke="lightgrey"/>
  </g>
  <!-- 138 -->
  <g class="node" id="node43">
   <title>
    138
   </title>
   <g id="a_node43">
    <a target="_parent" xlink:href="https://leetcode-cn.com/problems/copy-list-with-random-pointer" xlink:title="138. 复制带随机指针的链表">
     <polygon fill="none" points="1000,-180 809,-180 809,-144 1000,-144 1000,-180" stroke="orange"/>
     <text font-family="Microsoft YaHei" font-size="14.00" text-anchor="middle" x="904.5" y="-158.3">
      138. 复制带随机指针的链表
     </text>
    </a>
   </g>
  </g>
  <!-- 148&#45;&gt;138 -->
  <g class="edge" id="edge42">
   <title>
    148-&gt;138
   </title>
   <path d="M904.5,-215.7C904.5,-207.98 904.5,-198.71 904.5,-190.11" fill="none" stroke="lightgrey"/>
   <polygon fill="lightgrey" points="908,-190.1 904.5,-180.1 901,-190.1 908,-190.1" stroke="lightgrey"/>
  </g>
  <g class="key">
   <defs>
    <filter height="1.2" id="solid" width="1.2" x="-0.1" y="-0.1">
     <feFlood flood-color="#ccff90" result="bg"/>
     <feMerge>
      <feMergeNode in="bg"/>
      <feMergeNode in="SourceGraphic"/>
     </feMerge>
    </filter>
   </defs>
   <text filter="url(#solid)" font-family="Microsoft YaHei" font-size="10.00" text-anchor="middle" x="86.5" y="-571.0">
    链表增删改查
   </text>
  </g>
  <g class="key">
   <defs>
    <filter height="1.2" id="solid" width="1.2" x="-0.1" y="-0.1">
     <feFlood flood-color="#ccff90" result="bg"/>
     <feMerge>
      <feMergeNode in="bg"/>
      <feMergeNode in="SourceGraphic"/>
     </feMerge>
    </filter>
   </defs>
   <text filter="url(#solid)" font-family="Microsoft YaHei" font-size="10.00" text-anchor="middle" x="363.5" y="-571.0">
    简单删除
   </text>
  </g>
  <g class="key">
   <defs>
    <filter height="1.2" id="solid" width="1.2" x="-0.1" y="-0.1">
     <feFlood flood-color="#ccff90" result="bg"/>
     <feMerge>
      <feMergeNode in="bg"/>
      <feMergeNode in="SourceGraphic"/>
     </feMerge>
    </filter>
   </defs>
   <text filter="url(#solid)" font-family="Microsoft YaHei" font-size="10.00" text-anchor="middle" x="335.5" y="-499.0">
    删除多个
   </text>
  </g>
  <g class="key">
   <defs>
    <filter height="1.2" id="solid" width="1.2" x="-0.1" y="-0.1">
     <feFlood flood-color="#ccff90" result="bg"/>
     <feMerge>
      <feMergeNode in="bg"/>
      <feMergeNode in="SourceGraphic"/>
     </feMerge>
    </filter>
   </defs>
   <text filter="url(#solid)" font-family="Microsoft YaHei" font-size="10.00" text-anchor="middle" x="307.5" y="-283.0">
    区间和
   </text>
  </g>
  <g class="key">
   <defs>
    <filter height="1.2" id="solid" width="1.2" x="-0.1" y="-0.1">
     <feFlood flood-color="#ccff90" result="bg"/>
     <feMerge>
      <feMergeNode in="bg"/>
      <feMergeNode in="SourceGraphic"/>
     </feMerge>
    </filter>
   </defs>
   <text filter="url(#solid)" font-family="Microsoft YaHei" font-size="10.00" text-anchor="middle" x="518.5" y="5.0">
    堆
   </text>
  </g>
  <g class="key">
   <defs>
    <filter height="1.2" id="solid" width="1.2" x="-0.1" y="-0.1">
     <feFlood flood-color="#ccff90" result="bg"/>
     <feMerge>
      <feMergeNode in="bg"/>
      <feMergeNode in="SourceGraphic"/>
     </feMerge>
    </filter>
   </defs>
   <text filter="url(#solid)" font-family="Microsoft YaHei" font-size="10.00" text-anchor="middle" x="693.5" y="-139.0">
    路程相等
   </text>
  </g>
  <g class="key">
   <defs>
    <filter height="1.2" id="solid" width="1.2" x="-0.1" y="-0.1">
     <feFlood flood-color="#ccff90" result="bg"/>
     <feMerge>
      <feMergeNode in="bg"/>
      <feMergeNode in="SourceGraphic"/>
     </feMerge>
    </filter>
   </defs>
   <text filter="url(#solid)" font-family="Microsoft YaHei" font-size="10.00" text-anchor="middle" x="693.5" y="-67.0">
    公式推理
   </text>
  </g>
  <g class="key">
   <defs>
    <filter height="1.2" id="solid" width="1.2" x="-0.1" y="-0.1">
     <feFlood flood-color="#ccff90" result="bg"/>
     <feMerge>
      <feMergeNode in="bg"/>
      <feMergeNode in="SourceGraphic"/>
     </feMerge>
    </filter>
   </defs>
   <text filter="url(#solid)" font-family="Microsoft YaHei" font-size="10.00" text-anchor="middle" x="863.5" y="-571.0">
    位运算
   </text>
  </g>
  <g class="key">
   <defs>
    <filter height="1.2" id="solid" width="1.2" x="-0.1" y="-0.1">
     <feFlood flood-color="#ccff90" result="bg"/>
     <feMerge>
      <feMergeNode in="bg"/>
      <feMergeNode in="SourceGraphic"/>
     </feMerge>
    </filter>
   </defs>
   <text filter="url(#solid)" font-family="Microsoft YaHei" font-size="10.00" text-anchor="middle" x="881.5" y="-499.0">
    set
   </text>
  </g>
  <g class="key">
   <defs>
    <filter height="1.2" id="solid" width="1.2" x="-0.1" y="-0.1">
     <feFlood flood-color="#ccff90" result="bg"/>
     <feMerge>
      <feMergeNode in="bg"/>
      <feMergeNode in="SourceGraphic"/>
     </feMerge>
    </filter>
   </defs>
   <text filter="url(#solid)" font-family="Microsoft YaHei" font-size="10.00" text-anchor="middle" x="896.5" y="-427.0">
    二叉树搜索
   </text>
  </g>
  <g class="key">
   <defs>
    <filter height="1.2" id="solid" width="1.2" x="-0.1" y="-0.1">
     <feFlood flood-color="#ccff90" result="bg"/>
     <feMerge>
      <feMergeNode in="bg"/>
      <feMergeNode in="SourceGraphic"/>
     </feMerge>
    </filter>
   </defs>
   <text filter="url(#solid)" font-family="Microsoft YaHei" font-size="10.00" text-anchor="middle" x="904.5" y="-355.0">
    单调栈
   </text>
  </g>
  <g class="key">
   <defs>
    <filter height="1.2" id="solid" width="1.2" x="-0.1" y="-0.1">
     <feFlood flood-color="#ccff90" result="bg"/>
     <feMerge>
      <feMergeNode in="bg"/>
      <feMergeNode in="SourceGraphic"/>
     </feMerge>
    </filter>
   </defs>
   <text filter="url(#solid)" font-family="Microsoft YaHei" font-size="10.00" text-anchor="middle" x="904.5" y="-283.0">
    插入排序
   </text>
  </g>
  <g class="key">
   <defs>
    <filter height="1.2" id="solid" width="1.2" x="-0.1" y="-0.1">
     <feFlood flood-color="#ccff90" result="bg"/>
     <feMerge>
      <feMergeNode in="bg"/>
      <feMergeNode in="SourceGraphic"/>
     </feMerge>
    </filter>
   </defs>
   <text filter="url(#solid)" font-family="Microsoft YaHei" font-size="10.00" text-anchor="middle" x="904.5" y="-211.0">
    归并排序
   </text>
  </g>
  <g class="key">
   <defs>
    <filter height="1.2" id="solid" width="1.2" x="-0.1" y="-0.1">
     <feFlood flood-color="#ccff90" result="bg"/>
     <feMerge>
      <feMergeNode in="bg"/>
      <feMergeNode in="SourceGraphic"/>
     </feMerge>
    </filter>
   </defs>
   <text filter="url(#solid)" font-family="Microsoft YaHei" font-size="10.00" text-anchor="middle" x="904.5" y="-139.0">
    map映射
   </text>
  </g>
 </g>
</svg>